<?xml version="1.0" encoding="UTF-8"?>
<svg id="Ebene_2" data-name="Ebene 2" xmlns="http://www.w3.org/2000/svg" xmlns:xlink="http://www.w3.org/1999/xlink" viewBox="0 0 243 276.61">
  <defs>
    <style>
      .cls-1 {
        fill: #552586;
      }

      .cls-2 {
        clip-path: url(#clippath);
      }
    </style>
    <clipPath id="clippath">
      <path class="cls-1" d="M89.03,162c.31,8.06,3.15,15.4,7.68,21.17l-43.08,43.08c-14.63-17.72-22.79-40.42-23.11-64.25h58.51ZM98.67,185.45l-43.09,43.09c16.77,19.11,40.11,30.22,64.42,30.65v-63.65c-8.29-.41-15.78-4.18-21.33-10.09ZM121.5,128.42c-16.27,0-29.5,14.39-29.5,32.08s13.23,32.08,29.5,32.08,29.5-14.39,29.5-32.08-13.23-32.08-29.5-32.08ZM123,195.54v63.65c24.31-.43,47.65-11.54,64.42-30.65l-43.09-43.09c-5.55,5.91-13.04,9.68-21.33,10.09ZM146.29,183.17l43.08,43.08c7.29-8.84,12.98-18.91,16.89-29.75,3.94-10.89,6.06-22.55,6.22-34.5h-58.51c-.31,8.06-3.15,15.4-7.68,21.17ZM53.63,94.75c-14.63,17.72-22.79,40.42-23.11,64.25h58.51c.31-8.06,3.15-15.4,7.68-21.17l-43.08-43.08ZM55.58,92.46l43.09,43.09c5.55-5.91,13.04-9.68,21.33-10.09v-63.65c-24.31.43-47.65,11.54-64.42,30.65ZM123,61.81v63.65c8.29.41,15.78,4.18,21.33,10.09l43.09-43.09c-16.77-19.11-40.11-30.22-64.42-30.65ZM189.37,94.75l-43.08,43.08c4.53,5.77,7.37,13.11,7.68,21.17h58.51c-.32-23.83-8.48-46.53-23.11-64.25Z"/>
    </clipPath>
  </defs>
  <g id="Ebene_3" data-name="Ebene 3">
    <path class="cls-1" d="M31.82,120.63c-8.57,2.16-15.99,7.17-21.21,13.96-2.11,2.75-6.41,2.16-7.73-1.05C.87,128.64-.16,123.23.02,117.56c.66-20.08,16.99-36.55,37.07-37.36,6.51-.26,12.68,1.09,18.15,3.67-10.06,10.21-18.1,22.72-23.42,36.75h0Z"/>
    <path class="cls-1" d="M34.1,205.94c5.32,11.99,12.68,22.71,21.59,31.64-8.06,3.78-14.3,10.78-17.1,19.34-1.12,3.46-5.31,4.89-8.17,2.64-7.56-5.95-12.42-15.19-12.42-25.56,0-11.97,6.47-22.42,16.1-28.06Z"/>
    <path class="cls-1" d="M121.5,265.5c4.01,0,7.97-.26,11.85-.78-1.56,5.61-5.85,10.07-11.35,11.89-5.45-1.8-9.72-6.22-11.31-11.76,3.55.43,7.16.65,10.81.65Z"/>
    <path class="cls-1" d="M90.59,60.95c-4.77-6.4-7.59-14.35-7.59-22.95v-.15c0-7.33,3.94-14.08,10.29-17.72,6.7-3.83,12.52-9.01,17.1-15.16,1.84-2.46,4.44-4.18,7.34-4.97h7.54c2.9.79,5.5,2.51,7.34,4.97,4.58,6.15,10.4,11.33,17.1,15.16,6.35,3.64,10.28,10.39,10.29,17.72v.15c0,8.6-2.82,16.55-7.59,22.95h-.01c-9.71-3.54-20.1-5.45-30.9-5.45s-21.19,1.91-30.9,5.45h-.01Z"/>
    <path class="cls-1" d="M225,234c0,10.37-4.86,19.61-12.42,25.56-2.86,2.25-7.05.82-8.17-2.64-2.8-8.56-9.04-15.56-17.1-19.34,8.91-8.93,16.27-19.65,21.59-31.64,9.63,5.64,16.1,16.09,16.1,28.06Z"/>
    <path class="cls-1" d="M240.12,133.54c-1.32,3.21-5.62,3.8-7.73,1.05-5.22-6.79-12.64-11.8-21.21-13.96h0c-5.32-14.04-13.36-26.55-23.42-36.76,5.47-2.58,11.64-3.93,18.15-3.67,20.08.81,36.41,17.28,37.07,37.36.18,5.67-.85,11.08-2.86,15.98Z"/>
    <g>
      <path class="cls-1" d="M89.03,162c.31,8.06,3.15,15.4,7.68,21.17l-43.08,43.08c-14.63-17.72-22.79-40.42-23.11-64.25h58.51ZM98.67,185.45l-43.09,43.09c16.77,19.11,40.11,30.22,64.42,30.65v-63.65c-8.29-.41-15.78-4.18-21.33-10.09ZM121.5,128.42c-16.27,0-29.5,14.39-29.5,32.08s13.23,32.08,29.5,32.08,29.5-14.39,29.5-32.08-13.23-32.08-29.5-32.08ZM123,195.54v63.65c24.31-.43,47.65-11.54,64.42-30.65l-43.09-43.09c-5.55,5.91-13.04,9.68-21.33,10.09ZM146.29,183.17l43.08,43.08c7.29-8.84,12.98-18.91,16.89-29.75,3.94-10.89,6.06-22.55,6.22-34.5h-58.51c-.31,8.06-3.15,15.4-7.68,21.17ZM53.63,94.75c-14.63,17.72-22.79,40.42-23.11,64.25h58.51c.31-8.06,3.15-15.4,7.68-21.17l-43.08-43.08ZM55.58,92.46l43.09,43.09c5.55-5.91,13.04-9.68,21.33-10.09v-63.65c-24.31.43-47.65,11.54-64.42,30.65ZM123,61.81v63.65c8.29.41,15.78,4.18,21.33,10.09l43.09-43.09c-16.77-19.11-40.11-30.22-64.42-30.65ZM189.37,94.75l-43.08,43.08c4.53,5.77,7.37,13.11,7.68,21.17h58.51c-.32-23.83-8.48-46.53-23.11-64.25Z"/>
      <g class="cls-2">
        <ellipse class="cls-1" cx="121.5" cy="160.25" rx="91" ry="99"/>
      </g>
    </g>
  </g>
</svg>