<?xml version="1.0" encoding="UTF-8"?>
<svg id="Ebene_2" data-name="Ebene 2" xmlns="http://www.w3.org/2000/svg" viewBox="0 0 46.37 46.37">
  <defs>
    <style>
      .cls-1 {
        fill: #7d37c3;
      }
    </style>
  </defs>
  <g id="Ebene_1" data-name="Ebene 1">
    <g>
      <path class="cls-1" d="M34.07,7.55h0c-1.76-1.07-3.76-1.76-5.9-1.98-.47-.04-.95-.07-1.43-.07-.37,0-.73.01-1.09.04-.36.03-.72.07-1.07.12-.7.11-1.39.27-2.05.47-.1.03-.21.06-.3.1-.2.07-.41.14-.6.22-.1.04-.2.08-.3.12-.67.28-1.31.61-1.92.98-.2.12-.39.24-.57.37-.38.26-.74.53-1.09.81-.18.14-.35.29-.51.44-.17.15-.33.31-.49.47-.05.05-.1.1-.15.16-.11.11-.21.22-.31.33-.15.17-.3.34-.44.51-.29.35-.56.71-.81,1.09-.13.19-.25.38-.37.57-.36.58-.67,1.19-.94,1.83-.18.42-.34.86-.47,1.3-.21.67-.37,1.35-.47,2.05-.06.35-.1.7-.12,1.07,0,.05,0,.11,0,.17-.02.3-.03.61-.03.92v14.13s7.22,0,7.22,0h6.92c.31,0,.62,0,.92-.03.06,0,.11,0,.17,0,.36-.03.71-.07,1.07-.12.7-.11,1.39-.26,2.05-.47.44-.14.87-.29,1.3-.47.63-.27,1.24-.58,1.83-.94.19-.12.39-.24.57-.37.38-.26.74-.53,1.09-.81.18-.14.35-.29.51-.44.11-.1.23-.21.34-.32.05-.05.1-.1.15-.15.16-.16.31-.32.47-.49.15-.17.3-.34.44-.51.29-.35.56-.71.81-1.09.13-.19.25-.38.37-.57.36-.58.67-1.19.94-1.83l.04-.1c.04-.1.08-.2.12-.3.08-.2.15-.4.22-.6.03-.1.07-.2.1-.3l.47-2.05c.05-.35.09-.71.12-1.07.03-.36.04-.72.04-1.09,0-.48-.02-.95-.07-1.42,0,0,0,0,0,0-.22-2.14-.91-4.15-1.98-5.9h0c-.59-.97-1.29-1.87-2.09-2.67s-1.69-1.5-2.66-2.09ZM33.28,15.98c.65,1.07,1.07,2.29,1.21,3.59,0,0,0,0,0,0,.03.29.04.57.04.87,0,.22,0,.44-.02.66-.02.22-.04.44-.08.65l-.29,1.25c-.02.06-.04.13-.06.19-.04.12-.09.25-.13.37-.03.06-.05.12-.07.18l-.02.06c-.17.39-.36.76-.57,1.11-.07.12-.15.23-.22.35-.16.23-.32.45-.5.66-.09.11-.18.21-.27.31s-.19.2-.28.3l-.09.09c-.06.06-.14.13-.21.19-.1.09-.2.18-.31.27-.21.18-.44.34-.66.5-.11.08-.23.15-.35.22-.35.22-.72.41-1.11.57-.26.11-.52.2-.79.29-.4.13-.82.22-1.25.29-.21.04-.43.06-.65.07-.03,0-.07,0-.1,0-.18.01-.37.02-.56.02h-4.21s-4.39,0-4.39,0v-8.6c0-.19,0-.38.02-.56,0-.03,0-.07,0-.1.02-.22.04-.44.07-.65.06-.43.16-.85.29-1.25.08-.27.18-.53.29-.79.17-.39.36-.76.57-1.11.07-.12.15-.23.22-.35.16-.23.32-.45.5-.66.09-.11.17-.21.27-.31.06-.07.13-.14.19-.21l.09-.09c.1-.1.2-.19.3-.28.1-.09.21-.18.31-.27.21-.18.43-.34.66-.5.11-.08.23-.15.35-.22.37-.23.76-.43,1.17-.6.06-.02.12-.05.18-.07.12-.05.25-.09.37-.13.06-.02.12-.04.19-.06.4-.13.82-.22,1.25-.29.21-.04.43-.06.65-.08.22-.02.44-.02.66-.02.29,0,.58.01.87.04,1.3.13,2.52.56,3.59,1.21.59.36,1.14.79,1.62,1.27s.91,1.03,1.27,1.62Z"/>
      <path class="cls-1" d="M46.37.71v5.51c0,3.32-2.6,6.03-5.88,6.21-1.47-2.79-3.76-5.08-6.55-6.55.09-1.58.76-3.01,1.81-4.06C36.88.69,38.43,0,40.15,0h5.51c.39,0,.71.32.71.71Z"/>
      <path class="cls-1" d="M15.76,8.66c-.35.35-.68.71-.99,1.08-.21,0-.41.02-.63.03-4.45.34-6.87,2.6-7.5,1.89-.79-.89,1.72-5.94,6.06-8.14,4.52-2.29,9.62-.79,12.8.64-3.68.28-7.1,1.86-9.74,4.5Z"/>
      <path class="cls-1" d="M37.71,30.61c2.64-2.64,4.21-6.06,4.49-9.74,1.43,3.18,2.94,8.28.64,12.79-2.2,4.33-7.25,6.84-8.14,6.06-.72-.63,1.54-3.05,1.89-7.5.02-.21.03-.42.03-.63.37-.31.74-.64,1.08-.98Z"/>
      <path class="cls-1" d="M11.21,19.63v6.63c-1.08-.18-2.28-.27-3.57-.16-4.45.34-6.87,2.6-7.5,1.89-.79-.89,1.72-5.94,6.06-8.14,1.64-.83,3.37-1.17,5.04-1.18-.02.32-.03.65-.03.97Z"/>
      <path class="cls-1" d="M26.73,35.16c.33,0,.65,0,.97-.03-.01,1.68-.35,3.4-1.18,5.04-2.2,4.33-7.25,6.84-8.14,6.06-.72-.63,1.54-3.05,1.89-7.5.1-1.29.01-2.5-.16-3.57h6.62Z"/>
    </g>
  </g>
</svg>