<?xml version="1.0" encoding="UTF-8"?>
<svg id="Ebene_2" data-name="Ebene 2" xmlns="http://www.w3.org/2000/svg" xmlns:xlink="http://www.w3.org/1999/xlink" viewBox="0 0 500 116.11">
  <defs>
    <style>
      .cls-1 {
        fill: #552586;
      }

      .cls-2 {
        clip-path: url(#clippath);
      }
    </style>
    <clipPath id="clippath">
      <path class="cls-1" d="M37.37,68c.13,3.38,1.32,6.46,3.22,8.89l-18.08,18.08c-6.14-7.44-9.57-16.97-9.7-26.97h24.56ZM41.42,77.84l-18.09,18.09c7.04,8.02,16.84,12.69,27.04,12.87v-26.72c-3.48-.17-6.62-1.75-8.95-4.24ZM51,53.91c-6.83,0-12.38,6.04-12.38,13.47s5.55,13.47,12.38,13.47,12.38-6.04,12.38-13.47-5.55-13.47-12.38-13.47ZM51.63,82.08v26.72c10.2-.18,20-4.84,27.04-12.87l-18.09-18.09c-2.33,2.48-5.47,4.06-8.95,4.24ZM61.41,76.89l18.08,18.08c3.06-3.71,5.45-7.94,7.09-12.49,1.65-4.57,2.54-9.47,2.61-14.48h-24.56c-.13,3.38-1.32,6.46-3.22,8.89ZM22.51,39.77c-6.14,7.44-9.57,16.97-9.7,26.97h24.56c.13-3.38,1.32-6.46,3.22-8.89l-18.08-18.08ZM23.33,38.81l18.09,18.09c2.33-2.48,5.47-4.06,8.95-4.24v-26.72c-10.2.18-20,4.84-27.04,12.87ZM51.63,25.95v26.72c3.48.17,6.62,1.75,8.95,4.24l18.09-18.09c-7.04-8.02-16.84-12.69-27.04-12.87ZM79.49,39.77l-18.08,18.08c1.9,2.42,3.09,5.5,3.22,8.89h24.56c-.13-10-3.56-19.53-9.7-26.97Z"/>
    </clipPath>
  </defs>
  <g id="Ebene_3" data-name="Ebene 3">
    <g>
      <g>
        <path class="cls-1" d="M13.36,50.64c-3.6.91-6.71,3.01-8.9,5.86-.89,1.15-2.69.91-3.24-.44C.37,54-.07,51.73,0,49.35c.28-8.43,7.13-15.34,15.56-15.68,2.73-.11,5.32.46,7.62,1.54-4.22,4.29-7.6,9.54-9.83,15.43h0Z"/>
        <path class="cls-1" d="M14.31,86.45c2.23,5.03,5.32,9.53,9.06,13.28-3.38,1.59-6,4.53-7.18,8.12-.47,1.45-2.23,2.05-3.43,1.11-3.17-2.5-5.21-6.38-5.21-10.73,0-5.02,2.72-9.41,6.76-11.78Z"/>
        <path class="cls-1" d="M51,111.45c1.68,0,3.35-.11,4.97-.33-.65,2.35-2.46,4.23-4.76,4.99-2.29-.76-4.08-2.61-4.75-4.94,1.49.18,3.01.27,4.54.27Z"/>
        <path class="cls-1" d="M38.03,25.58c-2-2.69-3.19-6.02-3.19-9.63v-.06c0-3.08,1.65-5.91,4.32-7.44,2.81-1.61,5.26-3.78,7.18-6.36.77-1.03,1.86-1.75,3.08-2.09h3.17c1.22.33,2.31,1.05,3.08,2.09,1.92,2.58,4.37,4.76,7.18,6.36,2.67,1.53,4.32,4.36,4.32,7.44v.06c0,3.61-1.18,6.95-3.19,9.63h0c-4.08-1.49-8.44-2.29-12.97-2.29s-8.89.8-12.97,2.29h0Z"/>
        <path class="cls-1" d="M94.45,98.22c0,4.35-2.04,8.23-5.21,10.73-1.2.94-2.96.34-3.43-1.11-1.18-3.59-3.79-6.53-7.18-8.12,3.74-3.75,6.83-8.25,9.06-13.28,4.04,2.37,6.76,6.75,6.76,11.78Z"/>
        <path class="cls-1" d="M100.79,56.05c-.55,1.35-2.36,1.6-3.24.44-2.19-2.85-5.31-4.95-8.9-5.86h0c-2.23-5.89-5.61-11.14-9.83-15.43,2.3-1.08,4.89-1.65,7.62-1.54,8.43.34,15.28,7.25,15.56,15.68.08,2.38-.36,4.65-1.2,6.71Z"/>
        <g>
          <path class="cls-1" d="M37.37,68c.13,3.38,1.32,6.46,3.22,8.89l-18.08,18.08c-6.14-7.44-9.57-16.97-9.7-26.97h24.56ZM41.42,77.84l-18.09,18.09c7.04,8.02,16.84,12.69,27.04,12.87v-26.72c-3.48-.17-6.62-1.75-8.95-4.24ZM51,53.91c-6.83,0-12.38,6.04-12.38,13.47s5.55,13.47,12.38,13.47,12.38-6.04,12.38-13.47-5.55-13.47-12.38-13.47ZM51.63,82.08v26.72c10.2-.18,20-4.84,27.04-12.87l-18.09-18.09c-2.33,2.48-5.47,4.06-8.95,4.24ZM61.41,76.89l18.08,18.08c3.06-3.71,5.45-7.94,7.09-12.49,1.65-4.57,2.54-9.47,2.61-14.48h-24.56c-.13,3.38-1.32,6.46-3.22,8.89ZM22.51,39.77c-6.14,7.44-9.57,16.97-9.7,26.97h24.56c.13-3.38,1.32-6.46,3.22-8.89l-18.08-18.08ZM23.33,38.81l18.09,18.09c2.33-2.48,5.47-4.06,8.95-4.24v-26.72c-10.2.18-20,4.84-27.04,12.87ZM51.63,25.95v26.72c3.48.17,6.62,1.75,8.95,4.24l18.09-18.09c-7.04-8.02-16.84-12.69-27.04-12.87ZM79.49,39.77l-18.08,18.08c1.9,2.42,3.09,5.5,3.22,8.89h24.56c-.13-10-3.56-19.53-9.7-26.97Z"/>
          <g class="cls-2">
            <ellipse class="cls-1" cx="51" cy="67.27" rx="38.2" ry="41.56"/>
          </g>
        </g>
      </g>
      <g>
        <path class="cls-1" d="M128.11,33.19h23.75c17.1,0,28.83,10.31,28.83,26.14s-11.73,26.14-28.83,26.14h-23.75v-52.28ZM151.26,75.53c10.38,0,17.18-6.2,17.18-16.21s-6.8-16.21-17.18-16.21h-11.05v32.41h11.05Z"/>
        <path class="cls-1" d="M185.98,65.37c0-12.1,9.34-20.69,22.11-20.69s22.03,8.59,22.03,20.69-9.26,20.69-22.03,20.69-22.11-8.59-22.11-20.69ZM218.32,65.37c0-6.95-4.41-11.13-10.23-11.13s-10.31,4.18-10.31,11.13,4.48,11.13,10.31,11.13,10.23-4.18,10.23-11.13Z"/>
        <path class="cls-1" d="M278.96,62.46v23h-11.65v-21.21c0-6.5-2.99-9.49-8.14-9.49-5.6,0-9.63,3.44-9.63,10.83v19.87h-11.65v-40.18h11.13v4.71c3.14-3.44,7.84-5.3,13.29-5.3,9.49,0,16.65,5.53,16.65,17.77Z"/>
        <path class="cls-1" d="M325.04,62.54v22.93h-10.9v-5c-2.17,3.66-6.35,5.6-12.25,5.6-9.41,0-15.01-5.23-15.01-12.17s5-12.02,17.25-12.02h9.26c0-5-2.99-7.92-9.26-7.92-4.26,0-8.66,1.42-11.58,3.73l-4.18-8.14c4.41-3.14,10.9-4.85,17.33-4.85,12.25,0,19.34,5.68,19.34,17.85ZM313.38,72.77v-4.11h-7.99c-5.45,0-7.17,2.02-7.17,4.71,0,2.91,2.46,4.85,6.57,4.85,3.88,0,7.24-1.79,8.59-5.45Z"/>
        <path class="cls-1" d="M361.47,83.52c-2.39,1.72-5.9,2.54-9.48,2.54-9.49,0-15.01-4.85-15.01-14.41v-16.5h-6.2v-8.96h6.2v-9.78h11.65v9.78h10.01v8.96h-10.01v16.36c0,3.44,1.87,5.3,5,5.3,1.72,0,3.44-.52,4.71-1.49l3.14,8.22Z"/>
        <path class="cls-1" d="M405.91,68.66h-30.4c1.12,5,5.38,8.07,11.5,8.07,4.26,0,7.32-1.27,10.08-3.88l6.2,6.72c-3.73,4.26-9.34,6.5-16.58,6.5-13.89,0-22.93-8.74-22.93-20.69s9.19-20.69,21.43-20.69,20.91,7.92,20.91,20.84c0,.9-.15,2.17-.22,3.14ZM375.36,61.86h19.79c-.82-5.08-4.63-8.37-9.86-8.37s-9.11,3.21-9.93,8.37Z"/>
        <path class="cls-1" d="M413.9,30.05h11.65v55.42h-11.65V30.05Z"/>
        <path class="cls-1" d="M436.37,30.05h11.65v55.42h-11.65V30.05Z"/>
        <path class="cls-1" d="M455.86,65.37c0-12.1,9.34-20.69,22.11-20.69s22.03,8.59,22.03,20.69-9.26,20.69-22.03,20.69-22.11-8.59-22.11-20.69ZM488.2,65.37c0-6.95-4.41-11.13-10.23-11.13s-10.31,4.18-10.31,11.13,4.48,11.13,10.31,11.13,10.23-4.18,10.23-11.13Z"/>
      </g>
    </g>
  </g>
</svg>