<?xml version="1.0" encoding="UTF-8"?>
<svg id="a" xmlns="http://www.w3.org/2000/svg" version="1.1" viewBox="0 0 1080 620">
  <!-- Generator: Adobe Illustrator 29.4.0, SVG Export Plug-In . SVG Version: 2.1.0 Build 152)  -->
  <defs>
    <style>
      .st0 {
        font-family: ZillaSlab-Bold, 'Zilla Slab';
        font-size: 40px;
        font-weight: 700;
      }

      .st0, .st1, .st2, .st3 {
        isolation: isolate;
      }

      .st0, .st1, .st3 {
        fill: #4cb4e7;
      }

      .st1 {
        font-size: 155px;
      }

      .st1, .st3 {
        font-family: MochiyPopOne-Regular, 'Mochiy Pop One';
      }

      .st4 {
        fill: none;
        stroke: #4cb4e7;
        stroke-linejoin: round;
        stroke-width: 5px;
      }

      .st5 {
        fill: #ffe7bf;
      }

      .st3 {
        font-size: 56px;
      }
    </style>
  </defs>
  <g>
    <path class="st5" d="M656.4,182.4c0,1.3-.3,2.6-1,3.9l-15.6,61.3c0,12.5-36.3,22.6-81.2,22.6s-81.2-10.1-81.2-22.6l-15.6-61.3c-.7-1.3-1-2.6-1-3.9s0-.9.1-1.3l1.3-17,7.2-92.6c.2-2.6,3.5-3.5,5-1.3l56.8,82.9,24.9-70.6c.9-2.4,4.3-2.4,5.2,0l25,70.8,4.2-6.2,52.5-76.6c1.5-2.1,4.8-1.2,5,1.3l8.5,109.7h0v1.1h0v-.2Z"/>
    <g>
      <path class="st4" d="M521,215.3c-3.1-.3-6.1-.6-9-.9-25.2-2.9-45.1-8.7-54.5-15.9-2.2-1.7-3.9-3.5-4.8-5.4-.7-1.3-1-2.6-1-3.9s0-.9.1-1.3c.3-.7,1-1.5,2.3-2.4h0c2.6-1.9,7.4-4.2,13.4-6.6,5.8-2.2,12.9-4.5,20.6-6.6,12.7-3.4,24.2-5.4,31.5-5.7v.2l-1.3,3.5-2.3,6.5-.9,2.5h0l-1.9,5.5-2.9,8.1c.3-.4.8-.8,1.6-1.2v2.6c0,.4,0,.8.1,1.2,0,.4.1.8.2,1.2v.2c0,.3.1.6.2.9v.4c0,.3.1.6.2.9v.2c0,.4.2.7.3,1.1.1.4.2.8.3,1.2.1.4.2.7.3,1.1.2.5.3,1,.5,1.5.1.3.2.6.3.8.5,1.1,1,2.2,1.5,3.3.4.7.8,1.4,1.2,2.1,1.1,1.8,2.3,3.5,3.6,5.1h0l.4-.2Z"/>
      <path class="st4" d="M647.4,189.2c0,1.3-.3,2.6-1,3.9-.9,1.8-2.5,3.5-4.6,5.2-9.3,7.3-29.4,13.2-55,16.1-2.8.3-5.7.6-8.7.9,1.3-1.5,2.5-3.2,3.6-4.9.2-.3.4-.7.6-1,.4-.7.8-1.4,1.1-2.1.5-1.1,1-2.2,1.4-3.4.1-.4.3-.8.4-1.2.5-1.5.9-3.1,1.2-4.7v-.4c.1-.3.2-.6.2-1s.1-.8.2-1.2c0-.8.2-1.6.2-2.4v-1.3c.8.4,1.3.8,1.6,1.2l-2.9-8.1h0l-1.9-5.5h0l-3.1-8.7-1.3-3.7c2.9.1,6.3.5,10.3,1.1,6.2,1,13.5,2.5,21.2,4.6,15.5,4.2,28.5,9.3,33.8,13,1.4,1,2.2,1.8,2.5,2.6h0v1.1h.2Z"/>
      <path class="st4" d="M646.4,193.1l-15.6,61.3c0,12.5-36.3,22.6-81.2,22.6s-81.2-10.1-81.2-22.6l-15.6-61.3c1,1.9,2.6,3.6,4.8,5.4,9.3,7.2,29.2,13,54.5,15.9,2.9.3,5.9.6,9,.9,9,.8,18.6,1.2,28.6,1.2s19.5-.4,28.6-1.2c3-.2,5.9-.5,8.7-.9,25.6-3,45.7-8.8,55-16.1,2.1-1.7,3.6-3.4,4.6-5.2h-.2Z"/>
      <path class="st4" d="M647.3,188.1h0c-.3-.8-1.1-1.6-2.5-2.6-5.3-3.8-18.3-8.9-33.8-13-7.7-2.1-15-3.6-21.2-4.6-3.9-.6-7.4-1-10.3-1.1h0l-1.3-3.8h0l-.5-1.4-.6-1.7h0l4.2-6.2,52.5-76.6c1.5-2.1,4.8-1.2,5,1.3l8.5,109.7h0Z"/>
      <path class="st4" d="M587.1,191.7v1.3c0,.8-.1,1.6-.2,2.4,0,.4-.1.8-.2,1.2,0,.3,0,.6-.2,1v.4c-.4,1.6-.8,3.2-1.3,4.7-.1.4-.3.8-.4,1.2-.4,1.2-.9,2.3-1.4,3.4-.3.7-.7,1.4-1.1,2.1-.2.4-.4.7-.6,1-1,1.7-2.2,3.4-3.6,4.9-9,.8-18.6,1.2-28.6,1.2s-19.5-.4-28.6-1.2c-1.4-1.6-2.6-3.3-3.6-5.1-.4-.7-.8-1.4-1.2-2.1-.5-1.1-1-2.2-1.5-3.3-.1-.3-.2-.5-.3-.8-.2-.5-.4-1-.5-1.5-.1-.4-.2-.7-.3-1.1-.1-.4-.2-.8-.3-1.2,0-.4-.2-.7-.3-1.1v-.2c0-.3-.1-.6-.2-.9v-.4c0-.3-.1-.6-.2-.9v-.2c0-.4-.1-.8-.2-1.2,0-.4-.1-.8-.1-1.2v-2.6h.1c.3-.2.7-.3,1.2-.5h0c3.1-1.2,8.2-2.2,14.6-2.9.4,0,.9,0,1.3-.1,5.9-.6,12.9-.9,20.4-.9s14.4.3,20.4.9c6.9.7,12.4,1.7,15.7,2.9.5.2,1,.4,1.4.6h0l-.2.2Z"/>
      <path class="st4" d="M522.1,159.8l-.6,1.7-.5,1.4v.2l-1.3,3.5c-7.3.3-18.8,2.3-31.5,5.7-7.7,2.1-14.8,4.4-20.6,6.6-6.1,2.3-10.8,4.6-13.4,6.5h0c-1.2.9-2,1.7-2.3,2.5l1.3-17,7.2-92.6c.2-2.6,3.5-3.4,5-1.3l56.8,82.9h-.1Z"/>
      <path class="st4" d="M588.7,192.9c-.3-.4-.8-.8-1.6-1.2h0c-.4-.2-.9-.4-1.4-.6-3.3-1.2-8.8-2.2-15.7-2.9-6-.6-12.9-.9-20.4-.9s-14.4.3-20.4.9c-.4,0-.9,0-1.3.1-6.5.7-11.6,1.7-14.6,2.9h0c-.4.2-.8.3-1.2.5h-.1c-.8.4-1.3.8-1.6,1.2l2.9-8.1,1.9-5.4h0l.9-2.5,2.3-6.5,1.2-3.5v-.2l1.3-3.5v-.2l.6-1.4.6-1.7,24.9-70.6c.9-2.4,4.3-2.4,5.1,0l25,70.8h0l.6,1.7.5,1.4h0l1.3,3.7h0l1.3,3.8,3.1,8.7h0l1.9,5.5h0l2.9,8.1h0Z"/>
    </g>
  </g>
  <g class="st2">
    <g class="st2">
      <text class="st1" transform="translate(391.4 422.1)"><tspan x="0" y="0">EIS</tspan></text>
    </g>
  </g>
  <g class="st2">
    <g class="st2">
      <text class="st3" transform="translate(398.3 494)"><tspan x="0" y="0">PALAST</tspan></text>
    </g>
  </g>
  <g class="st2">
    <g class="st2">
      <text class="st0" transform="translate(398.7 541.2)"><tspan x="0" y="0">L</tspan></text>
    </g>
    <g class="st2">
      <text class="st0" transform="translate(420.6 541.2)"><tspan x="0" y="0">U</tspan></text>
    </g>
    <g class="st2">
      <text class="st0" transform="translate(449.8 541.2)"><tspan x="0" y="0">D</tspan></text>
    </g>
    <g class="st2">
      <text class="st0" transform="translate(477.1 541.2)"><tspan x="0" y="0">W</tspan></text>
    </g>
    <g class="st2">
      <text class="st0" transform="translate(517.1 541.2)"><tspan x="0" y="0">I</tspan></text>
    </g>
    <g class="st2">
      <text class="st0" transform="translate(531.1 541.2)"><tspan x="0" y="0">GS</tspan></text>
    </g>
    <g class="st2">
      <text class="st0" transform="translate(581.5 541.2)"><tspan x="0" y="0">L</tspan></text>
    </g>
    <g class="st2">
      <text class="st0" transform="translate(603.4 541.2)"><tspan x="0" y="0">UST</tspan></text>
    </g>
  </g>
</svg>