<?xml version="1.0" encoding="utf-8"?>
<!-- Generator: Adobe Illustrator 26.3.1, SVG Export Plug-In . SVG Version: 6.00 Build 0)  -->
<svg version="1.1" id="a" xmlns="http://www.w3.org/2000/svg" xmlns:xlink="http://www.w3.org/1999/xlink" x="0px" y="0px"
	 viewBox="0 0 1080 620" style="enable-background:new 0 0 1080 620;" xml:space="preserve">
<style type="text/css">
	.st0{fill:#FFE7BF;}
	.st1{fill:#4CB4E7;}
	.st2{enable-background:new    ;}
</style>
<g>
	<g>
		<path class="st0" d="M656.4,182.4c0,1.3-0.3,2.6-1,3.9l-15.6,61.3c0,12.5-36.3,22.6-81.2,22.6s-81.2-10.1-81.2-22.6l-15.6-61.3
			c-0.7-1.3-1-2.6-1-3.9s0-0.9,0.1-1.3l1.3-17l7.2-92.6c0.2-2.6,3.5-3.5,5-1.3l56.8,82.9l24.9-70.6c0.9-2.4,4.3-2.4,5.2,0l25,70.8
			l4.2-6.2L643,70.5c1.5-2.1,4.8-1.2,5,1.3l8.5,109.7l0,0v1.1l0,0v-0.2L656.4,182.4z"/>
	</g>
	<g>
		<g>
			<path class="st1" d="M520.6,218c-0.4,0-0.9-0.1-1.3-0.4c-2.6-0.3-5.1-0.5-7.6-0.8c-25.7-3-46-8.9-55.8-16.4
				c-2.7-2.1-4.5-4.1-5.5-6.3c-0.8-1.6-1.3-3.3-1.3-5c0-1.2,0-1.4,0.2-2c0-0.1,0.1-0.2,0.1-0.3c0.5-1.2,1.6-2.4,3.2-3.5
				c2.6-1.9,7.3-4.2,13.9-6.9c6.1-2.3,13.3-4.6,20.9-6.7c12.5-3.4,24.2-5.5,32.1-5.8c0.7,0,1.3,0.2,1.8,0.7c0.5,0.5,0.8,1.1,0.8,1.8
				v0.2c0,0.3-0.1,0.6-0.2,0.9l-1.3,3.5l-6.7,19c0.3,0.4,0.5,0.9,0.5,1.5v2.6c0,0.2,0,0.5,0,0.6c0,0.2,0.1,0.4,0.1,0.6
				c0,0.1,0.1,0.4,0.1,0.6c0,0.2,0.1,0.4,0.1,0.6v0.1c0,0.1,0,0.1,0.1,0.2c0.1,0.3,0.1,0.5,0.1,0.8v0.3c0,0.1,0,0.1,0.1,0.2
				c0.1,0.3,0.1,0.5,0.1,0.8l0,0c0.1,0.2,0.2,0.4,0.2,0.7l0.3,1.2c0,0.2,0.1,0.3,0.1,0.5c0,0.2,0.1,0.3,0.1,0.5
				c0.1,0.3,0.2,0.5,0.3,0.8c0.1,0.2,0.1,0.4,0.2,0.5c0,0,0,0.1,0.1,0.1c0.1,0.2,0.1,0.4,0.2,0.5l1.5,3.3l1.1,2
				c0.8,1.3,1.6,2.5,2.6,3.8c0.9,0.3,1.5,1,1.7,1.9c0.2,1.1-0.3,2.2-1.3,2.7l-0.4,0.2C521.4,217.9,521,218,520.6,218z M454.2,188.7
				c0,0.1,0,0.3,0,0.5c0,1,0.2,1.8,0.7,2.7c0,0,0,0.1,0.1,0.1c0.7,1.4,2,2.9,4.1,4.5c9,6.9,28.5,12.5,53.3,15.4
				c1,0.1,1.9,0.2,2.9,0.3c-0.1-0.2-0.2-0.3-0.3-0.5l-1.2-2.2c0-0.1-0.1-0.1-0.1-0.2L512,206c-0.1-0.3-0.3-0.6-0.4-1
				c-0.1-0.3-0.2-0.6-0.3-0.9c-0.1-0.2-0.1-0.4-0.2-0.5c0-0.1-0.1-0.2-0.1-0.3c0-0.2-0.1-0.3-0.1-0.5c-0.1-0.2-0.1-0.4-0.2-0.6
				l-0.3-1.2c0,0,0-0.1-0.1-0.1c-0.1-0.3-0.3-0.8-0.3-1.4c-0.1-0.4-0.2-0.8-0.2-1.3v0c-0.1-0.3-0.2-0.7-0.2-1.2
				c-0.1-0.4-0.2-0.8-0.2-1.2c0-0.2-0.1-0.4-0.1-0.6c-0.1,0-0.2-0.1-0.3-0.1c-1.1-0.6-1.6-1.9-1.2-3l2.9-8.1l2.8-8l2.3-6.6
				c-7.3,0.7-17.1,2.6-27.2,5.3c-7.4,2-14.4,4.3-20.4,6.5c-7.7,3.1-11.2,5.1-12.8,6.3C454.7,188.1,454.4,188.5,454.2,188.7z"/>
		</g>
		<g>
			<path class="st1" d="M578.1,217.8c-0.9,0-1.8-0.5-2.2-1.4c-0.5-0.9-0.3-2,0.3-2.8c1.1-1.2,2.2-2.7,3.4-4.6
				c0.1-0.1,0.2-0.3,0.2-0.4c0.1-0.2,0.2-0.4,0.3-0.6c0.3-0.6,0.7-1.2,0.9-1.8c0.5-1.1,0.9-2.1,1.3-3.1c0.1-0.3,0.2-0.5,0.3-0.8
				c0-0.1,0.1-0.2,0.1-0.3c0-0.1,0-0.1,0.1-0.2c0.4-1.3,0.8-2.7,1.1-4.1v-0.2c0-0.3,0-0.5,0.1-0.8c0-0.1,0.1-0.2,0.1-0.2
				c0-0.6,0.1-1.1,0.2-1.5c0-0.4,0.1-0.8,0.1-1.2c0-0.3,0.1-0.6,0.1-0.9v-1.3c0-0.5,0.2-1.1,0.5-1.5l-1.6-4.6l-1.9-5.5l-4.4-12.4
				c-0.3-0.8-0.1-1.6,0.3-2.3c0.5-0.7,1.3-1.1,2.1-1c2.8,0.1,6,0.4,10.6,1.1c7.1,1.1,14.5,2.7,21.5,4.7c15.3,4.2,28.9,9.4,34.6,13.4
				c1.9,1.4,2.9,2.5,3.4,3.8c0.1,0.3,0.2,0.6,0.2,0.9v0c0.1,0.3,0.2,0.6,0.2,1v0.1c0,0,0,0.1,0,0.1c0,1.7-0.5,3.3-1.3,4.9
				c-1,2-2.7,3.9-5.2,6c-9.7,7.6-30.2,13.7-56.3,16.6c-2.8,0.3-5.7,0.6-8.7,0.9C578.3,217.8,578.2,217.8,578.1,217.8z M587.6,203.4
				c-0.1,0.3-0.2,0.5-0.3,0.8c0,0.1-0.1,0.2-0.1,0.3c0,0.1,0,0.1-0.1,0.2c-0.4,1.3-1,2.5-1.5,3.6c-0.3,0.8-0.8,1.6-1.2,2.3
				c0,0-0.1,0.1-0.1,0.1c-0.1,0.1-0.1,0.2-0.2,0.4c-0.1,0.2-0.3,0.5-0.4,0.7c-0.1,0.2-0.2,0.3-0.3,0.4c1-0.1,2-0.2,3-0.3
				c24.8-2.8,44.9-8.6,53.7-15.6c1.9-1.6,3.2-3,3.9-4.4c0.3-0.6,0.6-1.3,0.7-1.9c-0.1-0.2-0.1-0.5-0.1-0.8v-0.4
				c-0.2-0.2-0.6-0.6-1.5-1.2c-5.1-3.6-18.4-8.7-33-12.6c-6.9-1.9-14.1-3.4-20.9-4.5c-2.4-0.4-4.5-0.6-6.3-0.8l7.9,22.4
				c0.4,1.2-0.1,2.5-1.2,3c-0.2,0.1-0.3,0.1-0.5,0.2c0,0,0,0.1,0,0.1c0,0.2,0,0.4-0.1,0.6c-0.1,0.2-0.1,0.5-0.1,0.6
				c0,0.6-0.1,1-0.2,1.4v0c0,0.2,0,0.3,0,0.5C588.5,200.2,588.1,201.9,587.6,203.4z"/>
		</g>
		<g>
			<path class="st1" d="M549.6,279.5c-40.3,0-83.1-8.7-83.7-24.8l-15.5-61c-0.3-1.2,0.3-2.5,1.5-3c1.2-0.5,2.5,0,3.1,1.2
				c0.8,1.5,2.1,2.9,4.2,4.6c8.9,6.9,28.3,12.5,53.2,15.4c2.9,0.3,5.9,0.6,9,0.9c8.9,0.8,18.4,1.2,28.4,1.2c9.8,0,19.4-0.4,28.4-1.2
				c3-0.2,5.8-0.5,8.6-0.9c25.4-3,45-8.7,53.8-15.6c1.5-1.2,2.6-2.4,3.5-3.7l0-0.2c0.3-1.1,1.3-1.9,2.4-1.9h0.2
				c0.9,0,1.7,0.5,2.2,1.2c0.4,0.8,0.5,1.7,0,2.5c-0.1,0.1-0.1,0.2-0.2,0.4l-15.3,60.1C632.7,270.8,589.9,279.5,549.6,279.5z
				 M457.5,201.5l13.3,52.2c0.1,0.2,0.1,0.4,0.1,0.6c0,9.5,32.3,20.1,78.7,20.1s78.7-10.6,78.7-20.1c0-0.2,0-0.4,0.1-0.6l13.3-52.1
				c-10.3,6.9-29.4,12.3-54.4,15.2c-2.8,0.4-5.8,0.7-8.8,0.9c-9.1,0.8-18.8,1.2-28.8,1.2c-10.1,0-19.8-0.4-28.8-1.2
				c-3.1-0.3-6.1-0.6-9-0.9C487.3,214.1,467.7,208.5,457.5,201.5z"/>
		</g>
		<g>
			<path class="st1" d="M647.3,190.6c-1,0-2-0.6-2.3-1.6c0-0.1-0.2-0.5-1.6-1.4c-5.1-3.7-18.4-8.8-33-12.6c-6.9-1.9-14.1-3.4-21-4.5
				c-4.1-0.6-7.4-1-10-1.1c-1,0-1.9-0.7-2.3-1.7l-2.4-6.9c-0.3-0.7-0.2-1.6,0.3-2.2l4.2-6.2l52.5-76.6c1.3-1.9,3.6-2.7,5.7-2.1
				c2.1,0.6,3.6,2.4,3.8,4.6l8.5,109.7c0.1,1.2-0.7,2.4-2,2.6C647.7,190.6,647.5,190.6,647.3,190.6z M581.3,164.4
				c2.5,0.2,5.4,0.5,8.9,1c7,1.1,14.5,2.7,21.5,4.7c14,3.7,26.2,8.2,32.7,12.1l-8-103.6c0,0,0-0.1-0.2-0.2c-0.2-0.1-0.3,0.1-0.3,0.1
				l-52.5,76.6l-3.5,5.1L581.3,164.4z"/>
		</g>
		<g>
			<path class="st1" d="M549.5,219c-10,0-19.7-0.4-28.8-1.2c-0.6-0.1-1.2-0.4-1.7-0.8c-1.5-1.7-2.8-3.6-3.9-5.5l-1.2-2.1
				c0-0.1-0.1-0.1-0.1-0.2l-1.5-3.3c0-0.1-0.1-0.2-0.1-0.2c0-0.1-0.1-0.2-0.1-0.3c-0.1-0.1-0.1-0.3-0.2-0.5
				c-0.2-0.5-0.5-1.1-0.6-1.8c0-0.2-0.1-0.3-0.1-0.4c-0.1-0.2-0.1-0.4-0.2-0.6l-0.3-1.2c0-0.1-0.1-0.2-0.1-0.4l0,0
				c-0.1-0.2-0.2-0.4-0.2-0.7c0-0.2-0.1-0.4-0.1-0.6V199c0-0.1,0-0.1-0.1-0.2c-0.1-0.3-0.1-0.5-0.1-0.8v-0.3c0-0.1,0-0.1-0.1-0.2
				c-0.1-0.3-0.1-0.5-0.1-0.8v-0.2c0-0.1-0.1-0.4-0.1-0.6c0-0.2-0.1-0.4-0.1-0.6c0-0.1,0-0.2,0-0.3c0-0.3-0.1-0.6-0.1-0.9v-2.6
				c0-1.1,0.7-2.1,1.8-2.4c0.3-0.1,0.5-0.2,0.7-0.3c0.1,0,0.2-0.1,0.4-0.1c3.3-1.3,8.6-2.3,15.3-3.1c0.1,0,0.2,0,0.3,0
				c0.2,0,0.6,0,0.7,0c0.1,0,0.2,0,0.3-0.1c5.9-0.6,13-0.9,20.7-0.9c7.6,0,14.6,0.3,20.6,0.9c5,0.5,11.9,1.5,16.3,3
				c0.6,0.2,1.2,0.5,1.7,0.7c0.7,0.4,1.2,1,1.3,1.8c0.1,0.5,0,1-0.2,1.4v0.5c0,0.9-0.1,1.8-0.2,2.6c0,0.5-0.1,1-0.2,1.3
				c0,0.3-0.1,0.7-0.2,1.1c0,0.2,0,0.4-0.1,0.5c-0.4,1.6-0.8,3.3-1.3,4.8c-0.1,0.3-0.2,0.5-0.3,0.8c0,0.1-0.1,0.2-0.1,0.3
				c0,0.1,0,0.1-0.1,0.2c-0.4,1.3-1,2.5-1.5,3.6c-0.3,0.8-0.8,1.6-1.2,2.3c-0.2,0.5-0.5,0.8-0.7,1.1c-1.2,2-2.5,3.8-3.9,5.3
				c-0.4,0.5-1,0.7-1.6,0.8C569.3,218.6,559.6,219,549.5,219z M522.1,212.9c8.7,0.7,17.9,1.1,27.4,1.1c9.6,0,18.8-0.4,27.4-1.1
				c0.9-1.1,1.8-2.4,2.6-3.8c0,0,0-0.1,0.1-0.1c0.2-0.2,0.3-0.5,0.4-0.7c0,0,0-0.1,0.1-0.1c0.4-0.6,0.7-1.3,1-1.8
				c0.5-1.1,0.9-2.1,1.3-3.1c0.1-0.3,0.2-0.5,0.3-0.8c0-0.1,0.1-0.2,0.1-0.3c0-0.1,0-0.1,0.1-0.2c0.4-1.3,0.8-2.7,1.2-4.2v-0.1
				c0-0.3,0.1-0.7,0.2-1v0c0-0.2,0-0.4,0.1-0.6c0.1-0.2,0.1-0.5,0.1-0.6c0-0.1,0-0.2,0-0.3c0.1-0.7,0.2-1.4,0.2-2
				c-3-1-8.2-2-14.7-2.6c-5.9-0.6-12.7-0.9-20.1-0.9c-7.4,0-14.3,0.3-20,0.9c-0.6,0.1-1.1,0.1-1.6,0.1c-5.9,0.7-10.7,1.6-13.5,2.6
				v0.9c0,0.1,0,0.2,0,0.3c0,0.2,0,0.4,0.1,0.6c0.1,0.4,0.2,0.8,0.2,1.4c0.1,0.4,0.2,0.8,0.2,1.3v0c0.1,0.3,0.2,0.7,0.2,1.1
				c0.1,0.3,0.2,0.6,0.3,1.1l0.2,1c0,0.2,0.1,0.3,0.1,0.5c0.1,0.2,0.1,0.4,0.2,0.6c0,0,0,0.1,0,0.1c0.1,0.3,0.2,0.7,0.4,1.1
				c0,0,0,0.1,0.1,0.1c0,0.1,0.1,0.2,0.1,0.3c0.1,0.1,0.1,0.3,0.2,0.4l1.4,3.1l1.1,2C520.2,210.3,521.1,211.7,522.1,212.9z
				 M510.7,200.2C510.7,200.2,510.7,200.2,510.7,200.2C510.7,200.2,510.7,200.2,510.7,200.2z"/>
		</g>
		<g>
			<path class="st1" d="M451.9,190.4c-0.2,0-0.4,0-0.5-0.1c-1.2-0.3-2-1.4-2-2.6l1.3-17l7.2-92.6c0.2-2.2,1.6-4,3.8-4.6
				c2.2-0.6,4.4,0.2,5.8,2.1l56.8,82.9c0.5,0.8,0.6,1.8,0.1,2.6c-0.1,0.1-0.1,0.3-0.2,0.4l-0.7,1.9c0,0.2-0.1,0.4-0.1,0.6l-1.3,3.5
				c-0.4,0.9-1.2,1.6-2.2,1.6c-7.4,0.3-19,2.4-31,5.6c-7.4,2-14.4,4.3-20.4,6.5c-5.8,2.2-10.4,4.4-12.8,6.2
				c-1.2,0.9-1.4,1.3-1.4,1.4C453.9,189.8,452.9,190.4,451.9,190.4z M463.1,78.3C463.1,78.3,463.1,78.3,463.1,78.3
				c-0.2,0-0.2,0.1-0.2,0.2l-7.2,92.6l-0.8,10.9c2.9-1.7,6.9-3.6,11.9-5.4c6.1-2.3,13.3-4.6,20.8-6.7c11.7-3.1,22.6-5.2,30.4-5.7
				l0.6-1.6c0-0.2,0.1-0.4,0.1-0.5l0.7-1.9l-56-81.7C463.3,78.4,463.3,78.3,463.1,78.3z"/>
		</g>
		<g>
			<path class="st1" d="M588.7,195.5c-0.9,0-1.7-0.5-2.2-1.2c-0.1-0.1-0.3-0.2-0.6-0.3c-0.3-0.2-0.8-0.3-1.2-0.5
				c-3-1.1-8.3-2.1-15-2.7c-5.9-0.6-12.7-0.9-20.1-0.9c-7.5,0-14.3,0.3-20.2,0.9c-0.1,0-0.2,0-0.2,0c-0.2,0-0.6,0-0.7,0
				c-0.1,0-0.2,0-0.3,0.1c-6.2,0.7-11.1,1.6-13.9,2.7c-0.2,0.1-0.5,0.2-0.7,0.3c-0.1,0-0.2,0.1-0.4,0.1c-0.1,0.1-0.3,0.1-0.4,0.2
				c-0.3,0.2-0.4,0.3-0.4,0.3c-0.7,1-2.1,1.3-3.2,0.7s-1.6-1.9-1.2-3l9.1-25.6c0-0.2,0.1-0.4,0.1-0.6l1.2-3.1c0-0.2,0.1-0.5,0.2-0.7
				l0.6-1.3l25.5-72.2c0.8-2.2,2.8-3.5,5-3.5c2.2,0,4.1,1.4,4.8,3.5l27.4,77.6l1.3,3.8l3.1,8.7l1.9,5.5l2.7,7.6
				c0.2,0.4,0.3,0.8,0.3,1.2v0.1c0,1.2-0.9,2.3-2.1,2.5C589,195.5,588.8,195.5,588.7,195.5z M522.1,167.2c0,0.2-0.1,0.3-0.1,0.5
				l-1.2,3.5l-6,16.9c3.9-1.1,8.8-1.8,12.7-2.2c0.6-0.1,1.1-0.1,1.6-0.1c6-0.6,12.9-0.9,20.5-0.9c7.6,0,14.6,0.3,20.6,0.9
				c4.2,0.4,9.8,1.2,14,2.3l-0.8-2.3l-1.9-5.5l-3.1-8.7l-3.7-10.6l-25-70.8c0-0.1,0-0.1-0.1-0.1c0,0,0,0,0,0c-0.2,0-0.2,0.1-0.2,0.2
				l-25.5,72.3c0,0.1,0,0.1-0.1,0.2l-0.4,1c0,0.2-0.1,0.3-0.1,0.5L522.1,167.2z"/>
		</g>
	</g>
</g>
<g>
	<g>
		<g class="st2">
			<path class="st1" d="M452.8,433.6c-7.9,0-14.9-0.5-21.2-1.6c-6.3-1.1-11.5-3.2-15.9-6.2c-4.3-3-7.6-7.5-9.9-13.4
				c-2.3-5.9-3.4-13.6-3.4-23.1c0-6.9,0.4-14.1,1.1-21.5c0.7-7.4,1.6-14.6,2.7-21.6c1.1-7,2.1-13.2,3.2-18.7
				c-2.1,0.3-3.8,0.6-5.3,0.9l-2.9-24.6c5.1-0.9,10.9-1.7,17.6-2.4c6.7-0.7,13.7-1.3,21.2-1.8c7.5-0.5,15-0.9,22.4-1.2
				c7.4-0.3,14.4-0.4,20.9-0.4c5.2,0,9.9,0.1,14.2,0.2c4.3,0.2,7.8,0.4,10.6,0.7l-1.2,25.9c-2.8-0.5-6.6-0.9-11.3-1.2
				c-4.8-0.3-10.1-0.4-16-0.4c-6.9,0-14.3,0.2-22.2,0.5c-7.9,0.3-15.3,0.7-22.5,1.1c-0.8,4.3-1.6,8.8-2.2,13.3
				c-0.6,4.5-1.2,9-1.7,13.5c6-0.8,12.6-1.5,19.8-1.9c7.2-0.5,14.3-0.8,21.5-1.1c7.1-0.3,13.5-0.4,19.2-0.4c3.3,0,6.3,0,8.8,0.1
				c2.6,0.1,4.7,0.2,6.4,0.4l-0.6,25.4c-1.3-0.1-3.2-0.2-5.5-0.2c-2.3-0.1-5-0.1-8.1-0.1c-4.4,0-9.4,0.1-14.9,0.2
				c-5.5,0.2-11.1,0.4-17,0.6c-5.8,0.3-11.5,0.6-17,0.9c-5.5,0.4-10.4,0.8-14.9,1.3c-0.4,5.8-0.6,10.4-0.6,14c0,5.1,0.7,8.8,2,11.2
				c1.3,2.4,3.6,3.9,6.7,4.6c3.2,0.7,7.3,1,12.5,1c9.2,0,19.1-0.8,29.7-2.3c10.6-1.6,21.1-4,31.4-7.3l1.7,27
				c-12.4,3.4-23.6,5.7-33.7,6.9C468.4,433,459.8,433.6,452.8,433.6z"/>
			<path class="st1" d="M532.3,432.8c-0.8-5.4-1.5-11.9-2.1-19.5c-0.6-7.6-1-16-1.2-25c-0.3-9-0.4-18.1-0.4-27.4
				c0-11.7,0.2-23,0.6-34.1c0.4-11.1,1-20.8,1.9-29.1l28.5,0.5c-1.1,7.3-2,16-2.6,25.9c-0.6,9.9-0.9,21.2-0.9,33.8
				c0,12.8,0.2,25.7,0.7,38.6c0.5,12.9,1,24.8,1.6,35.5L532.3,432.8z"/>
			<path class="st1" d="M632.6,434.5c-8.7,0-16.7-1.3-24.2-3.9c-7.4-2.6-14.1-6-20.1-10.3c-5.9-4.3-11.1-8.9-15.6-13.9l15.5-24.6
				c1.3,3.5,3.6,6.9,6.7,10.1c3.2,3.2,6.8,6,11.1,8.5c4.2,2.5,8.7,4.4,13.4,5.9c4.7,1.4,9.3,2.2,13.9,2.2c6.8,0,12.2-1.1,16.3-3.3
				c4-2.2,6-5.2,6-8.9c0-2.9-0.9-5.3-2.7-7.2c-1.8-1.9-3.9-3.5-6.2-4.6c-2.3-1.2-4.3-2.2-6-3.2c-1.2-0.6-3.5-1.6-6.7-2.9
				c-3.3-1.3-6.9-2.7-10.9-4.3c-4-1.5-7.9-3-11.5-4.4c-3.6-1.4-6.5-2.6-8.5-3.5c-15.4-6.9-23.1-17.6-23.1-32.1
				c0-4.7,0.9-9.2,2.7-13.7c1.8-4.5,4.6-8.6,8.3-12.3c3.7-3.7,8.5-6.7,14.3-8.8c5.8-2.2,12.7-3.3,20.8-3.3c8.8,0,16.6,1,23.4,2.9
				c6.8,1.9,12.8,4.3,18.1,7.2c5.2,2.9,9.7,5.9,13.4,9.1L666.7,339c-11.5-11.4-24.4-17-38.9-17c-6.1,0-10.7,0.6-13.9,1.9
				c-3.2,1.3-5.3,2.7-6.4,4.3c-1.1,1.6-1.6,2.9-1.6,4c0,1.8,0.6,3.5,1.9,5.3c1.3,1.8,4.2,3.6,8.8,5.6c1.9,0.8,4.4,1.8,7.5,3
				c3.2,1.2,6.7,2.5,10.5,4c3.9,1.4,7.7,3,11.5,4.6c3.8,1.6,7.2,3.2,10.3,4.9c3.7,2.1,7.5,4.6,11.5,7.6c3.9,3,7.3,6.7,10,11.1
				c2.7,4.4,4.1,9.7,4.1,16c0,3.8-0.7,8-2.2,12.6c-1.4,4.6-4,9-7.6,13.3c-3.6,4.2-8.6,7.7-15,10.4
				C650.8,433.2,642.6,434.5,632.6,434.5z"/>
		</g>
	</g>
</g>
<g>
	<g>
		<g class="st2">
			<path class="st1" d="M405.5,497.8c0-1.2-0.1-2.4-0.1-3.6c0-1.2,0-2.4,0-3.6c0-5.5,0.1-10.8,0.3-16s0.5-10.1,0.8-14.8
				c-1.5,0.4-2.7,0.7-3.8,1.1l-2.2-9c1.8-0.6,3.8-1.1,5.8-1.5c2-0.4,4-0.8,6-1.1s3.8-0.5,5.4-0.6c1.7-0.1,3-0.2,4.1-0.2
				c1.2,0,2.6,0.1,4.3,0.3c1.7,0.2,3.5,0.6,5.3,1.1c1.8,0.6,3.5,1.4,5.1,2.6c1.6,1.2,2.8,2.7,3.8,4.7c1,2,1.5,4.4,1.5,7.4
				c0,3.1-0.7,5.6-2,7.6c-1.3,2-3.1,3.7-5.3,4.9c-2.2,1.2-4.6,2.1-7.3,2.6c-2.7,0.5-5.3,0.8-7.8,0.8c-1.6,0-3.2-0.1-4.7-0.2
				c0,1.8-0.1,3.6-0.1,5.3c0,2.4,0,4.6,0.1,6.6c0,2,0.1,3.8,0.2,5.3L405.5,497.8z M421.7,457.7c-1,0-2,0-3,0.1c-1,0.1-2,0.2-3.1,0.3
				c-0.2,2-0.3,4.1-0.4,6.4c-0.1,2.3-0.2,4.7-0.3,7.1c1.4,0.1,2.8,0.2,4.3,0.2c9,0,13.4-2.7,13.4-8c0-2.1-0.9-3.6-2.7-4.6
				S425.4,457.7,421.7,457.7z"/>
			<path class="st1" d="M455,498l-9.6-1.8c1.8-7.2,3.7-13.8,5.6-19.7s4-10.9,6.1-15.1c2.1-4.2,4.2-7.4,6.4-9.7
				c2.2-2.3,4.4-3.4,6.6-3.4c4.4,0,8.5,4.1,12.3,12.3c3.7,8.2,6.9,20.2,9.5,35.8l-9.9,1.3c-0.4-2.5-0.9-5-1.5-7.6
				c-0.5-2.6-1.1-5.1-1.6-7.6c-0.9,0-1.9-0.1-2.9-0.1c-1.8,0-3.8,0-5.8,0.1c-2,0.1-4,0.2-6,0.4s-3.8,0.3-5.5,0.5
				c-0.7,2.4-1.4,4.8-2,7.3C456.1,493.3,455.5,495.7,455,498z M465.3,465.3c-0.8,1.8-1.9,4.6-3.3,8.5c1.6-0.2,3.3-0.3,5.1-0.4
				c1.8-0.1,3.5-0.1,5.3-0.1c1.5,0,2.9,0,4.2,0.1c-0.5-1.9-1-3.6-1.5-5.1c-0.5-1.5-0.9-2.7-1.3-3.5c-0.8-2-1.5-3.4-2.1-4.3
				c-0.6-0.8-1.2-1.3-1.8-1.3c-0.7,0-1.3,0.4-2,1.3C467.2,461.4,466.4,463,465.3,465.3z"/>
			<path class="st1" d="M513.2,498.1c-3.7,0-6.6-0.3-8.8-1c-2.2-0.6-3.8-1.5-4.8-2.7c-1-1.1-1.7-2.5-2-4c-0.3-1.5-0.5-3.2-0.5-5
				c0-3,0.1-6.4,0.3-10.2c0.2-3.8,0.4-8,0.7-12.4c0.3-4.4,0.6-9,0.9-13.7l10.2,1c-0.4,2.9-0.7,5.8-1,8.8c-0.3,3-0.5,5.9-0.7,8.8
				c-0.2,2.8-0.3,5.4-0.4,7.7c-0.1,2.3-0.2,4.2-0.3,5.8c-0.1,1.5-0.1,2.5-0.1,3c0,1.3,0.1,2.3,0.4,2.9c0.3,0.7,0.9,1.1,1.8,1.3
				c0.9,0.2,2.2,0.3,3.9,0.3c2.2,0,4.6-0.1,7.3-0.4c2.7-0.3,5.5-0.7,8.3-1.3c2.8-0.6,5.4-1.2,7.7-2l2.2,9.6
				c-2.5,0.6-5.3,1.2-8.2,1.7c-2.9,0.5-5.9,0.9-8.8,1.2S515.7,498.1,513.2,498.1z"/>
			<path class="st1" d="M550.1,498l-9.6-1.8c1.8-7.2,3.7-13.8,5.6-19.7s4-10.9,6.1-15.1c2.1-4.2,4.2-7.4,6.4-9.7
				c2.2-2.3,4.4-3.4,6.6-3.4c4.4,0,8.5,4.1,12.3,12.3c3.7,8.2,6.9,20.2,9.5,35.8l-9.9,1.3c-0.4-2.5-0.9-5-1.5-7.6s-1.1-5.1-1.6-7.6
				c-0.9,0-1.9-0.1-2.9-0.1c-1.8,0-3.8,0-5.8,0.1c-2,0.1-4,0.2-6,0.4s-3.8,0.3-5.5,0.5c-0.7,2.4-1.4,4.8-2,7.3
				C551.2,493.3,550.6,495.7,550.1,498z M560.4,465.3c-0.8,1.8-1.9,4.6-3.3,8.5c1.6-0.2,3.3-0.3,5.1-0.4c1.8-0.1,3.5-0.1,5.3-0.1
				c1.5,0,2.9,0,4.2,0.1c-0.5-1.9-1-3.6-1.5-5.1s-0.9-2.7-1.3-3.5c-0.8-2-1.5-3.4-2.1-4.3c-0.6-0.8-1.2-1.3-1.8-1.3
				c-0.7,0-1.3,0.4-2,1.3C562.3,461.4,561.5,463,560.4,465.3z"/>
			<path class="st1" d="M611.9,498.5c-3.1,0-6-0.5-8.7-1.4c-2.7-0.9-5.1-2.2-7.3-3.7c-2.1-1.5-4-3.2-5.6-5l5.6-8.9
				c0.5,1.3,1.3,2.5,2.4,3.6s2.5,2.2,4,3.1c1.5,0.9,3.1,1.6,4.8,2.1c1.7,0.5,3.4,0.8,5,0.8c2.5,0,4.4-0.4,5.9-1.2s2.2-1.9,2.2-3.2
				c0-1-0.3-1.9-1-2.6c-0.7-0.7-1.4-1.2-2.2-1.7c-0.8-0.4-1.6-0.8-2.2-1.1c-0.4-0.2-1.3-0.6-2.4-1c-1.2-0.5-2.5-1-3.9-1.5
				c-1.5-0.6-2.8-1.1-4.1-1.6c-1.3-0.5-2.3-0.9-3.1-1.3c-5.6-2.5-8.3-6.4-8.3-11.6c0-1.7,0.3-3.3,1-5c0.7-1.6,1.7-3.1,3-4.5
				s3.1-2.4,5.2-3.2c2.1-0.8,4.6-1.2,7.5-1.2c3.2,0,6,0.3,8.5,1c2.5,0.7,4.6,1.6,6.5,2.6c1.9,1,3.5,2.1,4.8,3.3l-5.2,8.6
				c-4.1-4.1-8.8-6.2-14.1-6.2c-2.2,0-3.9,0.2-5,0.7s-1.9,1-2.3,1.6c-0.4,0.6-0.6,1.1-0.6,1.4c0,0.6,0.2,1.3,0.7,1.9
				c0.5,0.6,1.5,1.3,3.2,2c0.7,0.3,1.6,0.7,2.7,1.1c1.1,0.4,2.4,0.9,3.8,1.4c1.4,0.5,2.8,1.1,4.1,1.7c1.4,0.6,2.6,1.2,3.7,1.8
				c1.3,0.7,2.7,1.7,4.1,2.7c1.4,1.1,2.6,2.4,3.6,4c1,1.6,1.5,3.5,1.5,5.8c0,1.4-0.3,2.9-0.8,4.6c-0.5,1.7-1.4,3.3-2.7,4.8
				c-1.3,1.5-3.1,2.8-5.4,3.8C618.5,498,615.6,498.5,611.9,498.5z"/>
			<path class="st1" d="M651.8,498.1c-0.3-3.2-0.4-6.4-0.5-9.5c-0.1-3.1-0.1-6-0.1-8.7c0-4.5,0.1-8.6,0.3-12.2
				c0.2-3.6,0.4-6.7,0.6-9.3c-3.2,0.2-6.3,0.4-9.4,0.7c-3,0.3-5.8,0.7-8.4,1.2l0.1-9.4c4.4-0.8,8.8-1.4,13.4-1.7
				c4.6-0.4,9.2-0.5,13.8-0.5c3.3,0,6.4,0.1,9.4,0.2s5.9,0.4,8.7,0.7l-0.1,9.7c-2.6-0.4-5.4-0.7-8.5-0.9s-6.2-0.3-9.3-0.3
				c-0.2,2.5-0.4,5.4-0.5,8.5c-0.1,3.1-0.2,6.5-0.2,10c0,3.2,0.1,6.5,0.3,10s0.4,7.2,0.6,11.1L651.8,498.1z"/>
		</g>
	</g>
</g>
<g>
	<g>
		<g class="st2">
			<path class="st1" d="M419.8,541.2h-19.5v-4.6h2.8v-16.9h-2.8v-4.6h11.8v4.6h-3.6v16.9h6.8l0.8-5l4.6,0.4L419.8,541.2z"/>
		</g>
	</g>
	<g>
		<g class="st2">
			<path class="st1" d="M448.3,519.8H446v10.7c0,1.8-0.3,3.6-1,5.3c-0.7,1.7-1.9,3.1-3.5,4.2c-1.6,1.1-3.8,1.6-6.6,1.6
				c-3.9,0-6.7-1.1-8.4-3.3c-1.6-2.2-2.4-4.7-2.4-7.5v-11.1h-2.3v-4.6h10.7v4.6h-3v11c0,1.8,0.4,3.3,1.3,4.4
				c0.9,1.2,2.3,1.7,4.4,1.7c2.1,0,3.5-0.6,4.5-1.8c0.9-1.2,1.4-2.7,1.4-4.7v-10.7h-3v-4.6h10.4V519.8z"/>
		</g>
	</g>
	<g>
		<g class="st2">
			<path class="st1" d="M476.7,528.1c0,3.9-1.2,7.1-3.5,9.5c-2.3,2.4-5.5,3.6-9.6,3.6h-12.2v-4.6h2.8v-16.9h-2.8v-4.6h11.9
				c4.5,0,7.8,1.2,10.1,3.6C475.6,521.1,476.7,524.2,476.7,528.1z M471,528.2c0-5.6-2.6-8.4-7.8-8.4h-3.6v16.9h3.6
				c2.5,0,4.4-0.7,5.8-2C470.3,533.3,471,531.1,471,528.2z"/>
		</g>
	</g>
	<g>
		<g class="st2">
			<path class="st1" d="M516.2,519.8h-2.1l-7.2,21.4h-3.8l-6.1-16.8h-0.2l-5.8,16.8h-3.9l-7.6-21.4h-2.2v-4.6h10.4v4.6h-2.4
				l3.9,12.6h0.2l4.6-12.6h-2v-4.6h10.4v4.6h-1.8l4.6,12.8h0.2l3.4-12.8h-2.8v-4.6h10.2V519.8z"/>
		</g>
	</g>
	<g>
		<g class="st2">
			<path class="st1" d="M529.6,541.2h-11v-4.6h2.8v-16.9h-2.8v-4.6h11v4.6h-2.8v16.9h2.8V541.2z"/>
		</g>
	</g>
	<g>
		<g class="st2">
			<path class="st1" d="M557.4,531.4h-1.3v9.8H552l-0.5-2.7c-0.8,0.9-1.8,1.7-3.1,2.3c-1.2,0.6-2.7,0.9-4.4,0.9
				c-3.7,0-6.6-1.3-8.7-3.8c-2.1-2.5-3.2-5.7-3.2-9.4s1.1-6.9,3.4-9.6c2.3-2.7,5.6-4,10-4c2.1,0,4,0.3,5.7,0.9
				c1.7,0.6,3,1.3,3.9,2.2l0.7,5.6l-4.3,0.4l-0.7-3c-0.7-0.5-1.6-0.8-2.6-1c-1.1-0.2-2-0.4-2.9-0.4c-2.1,0-3.9,0.7-5.3,2.2
				c-1.4,1.4-2.1,3.7-2.1,6.6c0,2.9,0.7,5,2,6.4c1.3,1.4,3,2.1,5.1,2.1c1.8,0,3.2-0.5,4.2-1.4s1.6-2.3,1.6-4v-0.2h-5.1v-4.5h11.8
				V531.4z"/>
			<path class="st1" d="M579.4,533.3c0,2.7-0.9,4.7-2.7,6.2s-4.3,2.1-7.5,2.1c-1.8,0-3.5-0.2-5.3-0.7c-1.7-0.5-3.1-1.1-4.1-2
				l0.8-6.4l4.3,0.4l0,3.2c0.9,0.5,1.7,0.8,2.3,0.9s1.2,0.1,1.6,0.1c1.4,0,2.6-0.2,3.5-0.5c0.9-0.4,1.4-1.2,1.4-2.5
				c0-1.4-0.5-2.4-1.6-2.9s-2.3-0.9-3.8-1.1c-1.3-0.2-2.5-0.5-3.8-0.9s-2.3-1.1-3.2-2c-0.9-0.9-1.3-2.4-1.3-4.2c0-2.9,1-5,3-6.1
				s4.1-1.8,6.5-1.8c1.7,0,3.3,0.3,4.9,0.8c1.5,0.5,2.7,1.2,3.6,2.1l0.2,5.6l-4.3,0.4l-0.4-3c-0.7-0.5-1.3-0.8-2-0.9
				c-0.7-0.2-1.3-0.2-2-0.2c-1.1,0-2,0.2-2.7,0.6c-0.7,0.4-1.1,1-1.1,2c0,1.1,0.5,1.9,1.4,2.3c0.9,0.4,1.9,0.8,3.1,1
				c1.1,0.2,2.3,0.5,3.7,0.9c1.4,0.4,2.7,1.1,3.8,2.2C578.9,529.5,579.4,531.1,579.4,533.3z"/>
		</g>
	</g>
	<g>
		<g class="st2">
			<path class="st1" d="M602.6,541.2h-19.5v-4.6h2.8v-16.9h-2.8v-4.6h11.8v4.6h-3.6v16.9h6.8l0.8-5l4.6,0.4L602.6,541.2z"/>
		</g>
	</g>
	<g>
		<g class="st2">
			<path class="st1" d="M631.1,519.8h-2.3v10.7c0,1.8-0.3,3.6-1,5.3c-0.7,1.7-1.9,3.1-3.5,4.2c-1.6,1.1-3.8,1.6-6.6,1.6
				c-3.9,0-6.7-1.1-8.4-3.3c-1.6-2.2-2.4-4.7-2.4-7.5v-11.1h-2.3v-4.6h10.7v4.6h-3v11c0,1.8,0.4,3.3,1.3,4.4
				c0.9,1.2,2.3,1.7,4.4,1.7c2.1,0,3.5-0.6,4.5-1.8c0.9-1.2,1.4-2.7,1.4-4.7v-10.7h-3v-4.6h10.4V519.8z"/>
			<path class="st1" d="M653.2,533.3c0,2.7-0.9,4.7-2.7,6.2s-4.3,2.1-7.5,2.1c-1.8,0-3.5-0.2-5.3-0.7c-1.7-0.5-3.1-1.1-4.1-2
				l0.8-6.4l4.3,0.4l0,3.2c0.9,0.5,1.7,0.8,2.3,0.9s1.2,0.1,1.6,0.1c1.4,0,2.6-0.2,3.5-0.5c0.9-0.4,1.4-1.2,1.4-2.5
				c0-1.4-0.5-2.4-1.6-2.9s-2.3-0.9-3.8-1.1c-1.3-0.2-2.5-0.5-3.8-0.9s-2.3-1.1-3.2-2c-0.9-0.9-1.3-2.4-1.3-4.2c0-2.9,1-5,3-6.1
				s4.1-1.8,6.5-1.8c1.7,0,3.3,0.3,4.9,0.8c1.5,0.5,2.7,1.2,3.6,2.1l0.2,5.6l-4.3,0.4l-0.4-3c-0.7-0.5-1.3-0.8-2-0.9
				c-0.7-0.2-1.3-0.2-2-0.2c-1.1,0-2,0.2-2.7,0.6c-0.7,0.4-1.1,1-1.1,2c0,1.1,0.5,1.9,1.4,2.3c0.9,0.4,1.9,0.8,3.1,1
				c1.1,0.2,2.3,0.5,3.7,0.9c1.4,0.4,2.7,1.1,3.8,2.2C652.7,529.5,653.2,531.1,653.2,533.3z"/>
			<path class="st1" d="M679.6,524l-4.6,0.4l-0.8-4.6h-4.1v16.9h4.2v4.6h-13.6v-4.6h4v-16.9h-4.1l-0.8,4.6l-4.6-0.4l0.8-8.8h22.7
				L679.6,524z"/>
		</g>
	</g>
</g>
</svg>
